<svg width="38" height="38" viewBox="0 0 38 38" fill="none" xmlns="http://www.w3.org/2000/svg">
<g filter="url(#filter0_d_130_533)">
<circle cx="19" cy="19" r="15" fill="url(#paint0_linear_130_533)"/>
<circle cx="18.9999" cy="19" r="11.9597" fill="url(#paint1_linear_130_533)"/>
<g opacity="0.32" filter="url(#filter1_f_130_533)">
<path d="M27.0144 10.1248C29.4367 12.3134 30.9596 15.4782 30.9597 18.9998C30.9597 25.6048 25.6057 30.9596 19.0007 30.9597C15.4775 30.9597 12.3106 29.4356 10.1218 27.0115C12.2431 28.9296 15.0543 30.0994 18.1394 30.0994C24.7445 30.0994 30.0993 24.7445 30.0994 18.1394C30.0994 15.0558 28.9309 12.2457 27.0144 10.1248Z" fill="#FFE26F"/>
</g>
<g opacity="0.61" filter="url(#filter2_f_130_533)">
<path d="M19.0002 7.04034C22.523 7.04043 25.6895 8.56398 27.8782 10.9876C25.757 9.06983 22.9454 7.90167 19.8606 7.90167C13.2556 7.90172 7.90082 13.2557 7.90063 19.8607C7.90063 22.944 9.0685 25.7545 10.9846 27.8753C8.56278 25.6868 7.04037 22.5216 7.04028 19.0003C7.04028 12.3952 12.3951 7.04034 19.0002 7.04034Z" fill="#F99335"/>
</g>
<g filter="url(#filter3_f_130_533)">
<rect x="17.7817" y="13.6502" width="4.04188" height="11.6544" rx="2.02094" fill="#F99335"/>
</g>
<rect x="16.9788" y="13.1728" width="4.04188" height="11.6544" rx="2.02094" fill="#FFEB98"/>
</g>
<defs>
<filter id="filter0_d_130_533" x="0" y="0" width="38" height="38" filterUnits="userSpaceOnUse" color-interpolation-filters="sRGB">
<feFlood flood-opacity="0" result="BackgroundImageFix"/>
<feColorMatrix in="SourceAlpha" type="matrix" values="0 0 0 0 0 0 0 0 0 0 0 0 0 0 0 0 0 0 127 0" result="hardAlpha"/>
<feOffset/>
<feGaussianBlur stdDeviation="2"/>
<feColorMatrix type="matrix" values="0 0 0 0 1 0 0 0 0 0.780392 0 0 0 0 0 0 0 0 0.3 0"/>
<feBlend mode="normal" in2="BackgroundImageFix" result="effect1_dropShadow_130_533"/>
<feBlend mode="normal" in="SourceGraphic" in2="effect1_dropShadow_130_533" result="shape"/>
</filter>
<filter id="filter1_f_130_533" x="6.12183" y="6.12479" width="28.8379" height="28.835" filterUnits="userSpaceOnUse" color-interpolation-filters="sRGB">
<feFlood flood-opacity="0" result="BackgroundImageFix"/>
<feBlend mode="normal" in="SourceGraphic" in2="BackgroundImageFix" result="shape"/>
<feGaussianBlur stdDeviation="2" result="effect1_foregroundBlur_130_533"/>
</filter>
<filter id="filter2_f_130_533" x="3.04028" y="3.04034" width="28.8379" height="28.835" filterUnits="userSpaceOnUse" color-interpolation-filters="sRGB">
<feFlood flood-opacity="0" result="BackgroundImageFix"/>
<feBlend mode="normal" in="SourceGraphic" in2="BackgroundImageFix" result="shape"/>
<feGaussianBlur stdDeviation="2" result="effect1_foregroundBlur_130_533"/>
</filter>
<filter id="filter3_f_130_533" x="13.7817" y="9.65024" width="12.0419" height="19.6544" filterUnits="userSpaceOnUse" color-interpolation-filters="sRGB">
<feFlood flood-opacity="0" result="BackgroundImageFix"/>
<feBlend mode="normal" in="SourceGraphic" in2="BackgroundImageFix" result="shape"/>
<feGaussianBlur stdDeviation="2" result="effect1_foregroundBlur_130_533"/>
</filter>
<linearGradient id="paint0_linear_130_533" x1="9.56852" y1="7.31702" x2="28.0838" y2="29.9393" gradientUnits="userSpaceOnUse">
<stop stop-color="#FFC700"/>
<stop offset="1" stop-color="#FFA800"/>
</linearGradient>
<linearGradient id="paint1_linear_130_533" x1="13.3388" y1="12.0299" x2="25.7272" y2="28.0541" gradientUnits="userSpaceOnUse">
<stop stop-color="#FFA800"/>
<stop offset="0.938927" stop-color="#FFC838"/>
</linearGradient>
</defs>
</svg>
