<svg width="22" height="26" viewBox="0 0 22 26" fill="none" xmlns="http://www.w3.org/2000/svg">
<path d="M17.6097 13.8621C17.646 17.7807 21.0477 19.0849 21.0853 19.1016C21.0565 19.1933 20.5419 20.9601 19.2933 22.7845C18.214 24.362 17.0936 25.9336 15.3292 25.9666C13.5954 25.9983 13.0378 24.9381 11.0554 24.9381C9.07352 24.9381 8.45425 25.9336 6.81279 25.9983C5.10942 26.0629 3.81231 24.2922 2.72405 22.7208C0.500415 19.5058 -1.19899 13.6359 1.08279 9.67371C2.21629 7.70604 4.24232 6.4602 6.44114 6.4281C8.11366 6.39621 9.69238 7.55325 10.7148 7.55325C11.7365 7.55325 13.655 6.16171 15.6719 6.36598C16.5163 6.40121 18.8862 6.70699 20.408 8.93479C20.2857 9.01087 17.5803 10.5858 17.6097 13.8621ZM14.3512 4.23928C15.2554 3.14476 15.8641 1.62065 15.6981 0.104675C14.3946 0.156994 12.8183 0.973242 11.8835 2.06734C11.0456 3.03596 10.3119 4.58675 10.5097 6.07271C11.9627 6.18527 13.4468 5.33442 14.3512 4.23928Z" fill="#0C092A"/>
</svg>
